<svg width="1200" height="800" viewBox="0 0 1200 800" fill="none" xmlns="http://www.w3.org/2000/svg">
    <rect width="1200" height="800" fill="#F3F4F6"/>

    <defs>
        <filter id="card-shadow" x="-4" y="-4" width="108%" height="108%" filterUnits="objectBoundingBox">
            <feDropShadow dx="0" dy="4" stdDeviation="6" flood-color="rgba(0, 0, 0, 0.05)"/>
        </filter>
        <linearGradient id="green-gradient" x1="0" y1="0" x2="1" y2="1">
            <stop offset="0%" stop-color="#22C55E"/>
            <stop offset="100%" stop-color="#16A34A"/>
        </linearGradient>
        <linearGradient id="red-gradient" x1="0" y1="0" x2="1" y2="1">
            <stop offset="0%" stop-color="#EF4444"/>
            <stop offset="100%" stop-color="#DC2626"/>
        </linearGradient>
    </defs>

    <text x="600" y="50" text-anchor="middle" font-family="sans-serif" font-weight="bold" font-size="24" fill="#1F2937">URL-Keyword Relevance Analyzer</text>

    <g transform="translate(400, 90)" filter="url(#card-shadow)">
        <rect width="400" height="100" rx="16" fill="white"/>
        <rect x="20" y="20" width="32" height="32" rx="8" fill="#F3F4F6"/>
        <path d="M36 36C36 36 32 36 32 40C32 44 36 44 36 44M40 36C40 36 44 36 44 40C44 44 40 44 40 44M34 40H42" stroke="#6B7280" stroke-width="2" stroke-linecap="round"/> <text x="64" y="42" font-family="sans-serif" font-weight="bold" font-size="18" fill="#1F2937">1. Input</text>
        <rect x="20" y="60" width="220" height="30" rx="8" fill="#F9FAFB" stroke="#E5E7EB"/>
        <text x="30" y="80" font-family="sans-serif" font-size="14" fill="#1F2937">https://example.com/blog...</text>
        <text x="220" y="80" font-family="sans-serif" font-size="12" fill="#9CA3AF" text-anchor="end">URL</text>
        <rect x="250" y="60" width="130" height="30" rx="8" fill="#F9FAFB" stroke="#E5E7EB"/>
        <text x="260" y="80" font-family="sans-serif" font-size="14" fill="#1F2937">AI SEO tools</text>
        <text x="360" y="80" font-family="sans-serif" font-size="12" fill="#9CA3AF" text-anchor="end">Keyword</text>
    </g>

    <g transform="translate(400, 250)" filter="url(#card-shadow)">
        <rect width="400" height="100" rx="16" fill="white"/>
        <text x="64" y="42" font-family="sans-serif" font-weight="bold" font-size="18" fill="#1F2937">2. AI Analysis</text>
        <circle cx="36" cy="36" r="16" fill="#E0F2FE"/>
        <path d="M36 28C32 28 29 31 29 36C29 41 32 44 36 44C40 44 43 41 43 36C43 31 40 28 36 28ZM33 34C33 34 35 32 37 32C39 32 41 34 41 34M33 38C33 38 35 40 37 40C39 40 41 38 41 38" stroke="#0EA5E9" stroke-width="2" stroke-linecap="round"/>
        <circle cx="360" cy="36" r="12" stroke="#E5E7EB" stroke-width="3"/>
        <path d="M360 24C366.627 24 372 29.3726 372 36" stroke="#3B82F6" stroke-width="3" stroke-linecap="round"/>
        <text x="20" y="80" font-family="sans-serif" font-size="16" fill="#4B5563">Analyzing Content & Semantics</text>
    </g>

    <g transform="translate(50, 500)" filter="url(#card-shadow)">
        <rect width="500" height="120" rx="16" fill="white"/>
        <rect x="20" y="20" width="32" height="32" rx="8" fill="#DCFCE7"/>
        <path d="M28 36L34 42L44 32" stroke="#22C55E" stroke-width="3" stroke-linecap="round" stroke-linejoin="round"/> <text x="64" y="44" font-family="sans-serif" font-weight="bold" font-size="20" fill="#1F2937">3a. Optimized Content</text>
        <text x="20" y="90" font-family="sans-serif" font-size="18" fill="#1F2937">Content is relevant. View reworked version.</text>
        <rect x="440" y="20" width="40" height="40" rx="20" fill="#DCFCE7"/>
        <path d="M452 40L458 46L468 36" stroke="#22C55E" stroke-width="3" stroke-linecap="round" stroke-linejoin="round"/>
    </g>

    <g transform="translate(700, 440)" filter="url(#card-shadow)">
        <rect width="350" height="80" rx="16" fill="white"/>
        <rect x="15" y="15" width="32" height="32" rx="8" fill="#FEE2E2"/>
        <path d="M31 20V36M31 40H31.01" stroke="#EF4444" stroke-width="3" stroke-linecap="round"/>
        <text x="55" y="35" font-family="sans-serif" font-weight="bold" font-size="16" fill="#1F2937">3b. AI Recommendations</text>
        <text x="55" y="55" font-family="sans-serif" font-size="14" fill="#4B5563">Score: <tspan fill="#F59E0B" font-weight="bold">65 (Moderate)</tspan>. See improvements.</text>
    </g>

    <g transform="translate(650, 550)" filter="url(#card-shadow)">
        <rect width="280" height="100" rx="16" fill="white"/>
        <rect x="15" y="15" width="24" height="24" rx="6" fill="#F3E8FF"/>
        <text x="48" y="33" font-family="sans-serif" font-weight="bold" font-size="14" fill="#1F2937">4a. Semantic Coverage</text>
        <text x="15" y="60" font-family="sans-serif" font-size="12" fill="#6B7280">Adds high semantic recommendations...</text>
    </g>

    <g transform="translate(950, 550)" filter="url(#card-shadow)">
        <rect width="250" height="100" rx="16" fill="white"/>
        <rect x="15" y="15" width="24" height="24" rx="6" fill="#DBEAFE"/>
        <text x="48" y="33" font-family="sans-serif" font-weight="bold" font-size="14" fill="#1F2937">4b. On-Page SEO</text>
        <text x="15" y="60" font-family="sans-serif" font-size="12" fill="#6B7280">Specific recommendations for On-Page SEO...</text>
    </g>

     <g transform="translate(850, 720)" filter="url(#card-shadow)">
        <rect width="300" height="60" rx="16" fill="white"/>
        <text x="50" y="38" font-family="sans-serif" font-weight="bold" font-size="16" fill="#1F2937">Reworked Content</text>
        <rect x="260" y="15" width="30" height="30" rx="15" fill="#DCFCE7"/>
         <path d="M268 30L273 35L282 25" stroke="#22C55E" stroke-width="2" stroke-linecap="round" stroke-linejoin="round"/>
    </g>


    <path d="M600 190 V250" stroke="#D1D5DB" stroke-width="2"/>
    <g transform="translate(650, 210)">
        <rect x="-50" y="-15" width="120" height="30" rx="15" fill="#DCFCE7"/>
        <text x="10" y="5" font-family="sans-serif" font-size="14" fill="#16A34A" text-anchor="middle">✓ Completed</text>
    </g>
    <circle cx="600" cy="190" r="6" fill="white" stroke="#D1D5DB" stroke-width="2"/>
    <circle cx="600" cy="250" r="6" fill="white" stroke="#D1D5DB" stroke-width="2"/>

    <circle cx="600" cy="350" r="6" fill="white" stroke="#D1D5DB" stroke-width="2"/>

    <path d="M600 350 C600 400, 300 400, 300 500" stroke="#22C55E" stroke-width="2" fill="none"/>
    <g transform="translate(450, 380)">
        <rect x="-80" y="-15" width="160" height="30" rx="15" fill="#DCFCE7" stroke="#22C55E"/>
        <text x="0" y="5" font-family="sans-serif" font-size="14" fill="#16A34A" text-anchor="middle">High Score (>70)</text>
    </g>
    <path d="M295 490 L300 500 L305 490" stroke="#22C55E" stroke-width="2" fill="none"/> <path d="M600 350 C600 400, 875 380, 875 440" stroke="#EF4444" stroke-width="2" fill="none"/>
    <g transform="translate(750, 380)">
        <rect x="-80" y="-15" width="160" height="30" rx="15" fill="#FEE2E2" stroke="#EF4444"/>
        <text x="0" y="5" font-family="sans-serif" font-size="14" fill="#DC2626" text-anchor="middle">Low Score (<70)</text>
    </g>
    <path d="M870 430 L875 440 L880 430" stroke="#EF4444" stroke-width="2" fill="none"/> <circle cx="875" cy="520" r="6" fill="white" stroke="#EF4444" stroke-width="2"/>
    <path d="M875 520 C875 535, 790 535, 790 550" stroke="#D1D5DB" stroke-width="2" fill="none"/>
    <path d="M785 540 L790 550 L795 540" stroke="#D1D5DB" stroke-width="2" fill="none"/>
    <path d="M875 520 C875 535, 1075 535, 1075 550" stroke="#D1D5DB" stroke-width="2" fill="none"/>
    <path d="M1070 540 L1075 550 L1080 540" stroke="#D1D5DB" stroke-width="2" fill="none"/>

    <circle cx="300" cy="620" r="6" fill="white" stroke="#D1D5DB" stroke-width="2"/>
    <path d="M300 620 V750 H850" stroke="#D1D5DB" stroke-width="2" fill="none"/>
    <circle cx="875" cy="650" r="6" fill="white" stroke="#22C55E" stroke-width="2"/>
     <path d="M875 650 V700 C875 710, 1000 700, 1000 720" stroke="#22C55E" stroke-width="2" fill="none"/>
    <path d="M995 710 L1000 720 L1005 710" stroke="#22C55E" stroke-width="2" fill="none"/>


</svg>
